<?xml version="1.0" standalone="no"?>
<!DOCTYPE svg PUBLIC "-//W3C//DTD SVG 20010904//EN"
 "http://www.w3.org/TR/2001/REC-SVG-20010904/DTD/svg10.dtd">
<svg version="1.0" xmlns="http://www.w3.org/2000/svg"
 width="1024.000000pt" height="1024.000000pt" viewBox="0 0 1024.000000 1024.000000"
 preserveAspectRatio="xMidYMid meet">
<metadata>
Created by potrace 1.11, written by Peter Selinger 2001-2013
</metadata>
<g transform="translate(0.000000,1024.000000) scale(0.100000,-0.100000)"
fill="#000000" stroke="none">
<path d="M4057 8574 c-1 -1 -63 -5 -137 -9 -74 -4 -151 -8 -170 -9 -177 -15
-212 -18 -232 -21 -13 -2 -45 -6 -73 -10 -27 -3 -77 -10 -110 -15 -33 -5 -80
-12 -105 -15 -25 -3 -53 -8 -63 -11 -10 -3 -31 -7 -48 -9 -52 -7 -228 -45
-374 -81 -425 -106 -827 -255 -1237 -460 -338 -168 -440 -244 -545 -406 -104
-161 -152 -323 -148 -506 1 -64 5 -127 8 -138 3 -12 8 -39 11 -60 4 -22 11
-61 16 -89 5 -27 12 -66 15 -85 3 -19 15 -84 26 -145 10 -60 22 -123 24 -140
7 -40 44 -244 49 -270 2 -11 7 -40 11 -65 4 -25 9 -54 11 -65 6 -26 44 -234
48 -260 2 -11 16 -87 31 -170 14 -82 28 -159 29 -170 2 -11 6 -33 9 -50 4 -16
9 -46 13 -65 3 -19 10 -60 15 -90 6 -30 12 -68 15 -85 2 -16 9 -50 14 -75 5
-25 16 -85 25 -135 22 -131 24 -140 44 -255 11 -58 22 -123 26 -145 14 -82 16
-90 21 -107 3 -9 7 -25 9 -35 23 -111 107 -296 200 -438 182 -280 521 -591
913 -837 161 -101 420 -230 587 -292 72 -27 139 -52 150 -56 118 -46 404 -123
450 -121 2 0 19 -5 37 -10 18 -5 56 -12 83 -15 28 -4 73 -10 100 -14 58 -10
320 -8 330 1 3 4 -30 56 -75 115 -160 214 -317 487 -402 699 l-36 89 -133 46
c-165 57 -280 106 -429 183 -350 183 -653 413 -801 609 -99 132 -133 213 -164
391 -14 80 -38 218 -49 277 -7 33 -46 257 -53 295 -2 17 -15 90 -29 162 -13
73 -27 150 -30 170 -6 43 -7 47 -28 158 -8 44 -17 94 -20 110 -2 17 -9 53 -14
80 -6 28 -13 75 -17 105 -4 30 -9 58 -11 61 -2 3 -5 19 -8 35 -16 95 -37 212
-41 234 -6 30 -8 43 -34 190 -26 151 -61 349 -67 380 -3 14 -7 48 -10 75 -5
45 -3 51 18 61 13 6 86 43 163 81 463 233 963 402 1430 483 33 5 69 12 81 14
12 2 45 7 75 11 30 3 61 8 69 10 8 2 44 6 80 10 36 3 76 8 90 10 25 4 160 15
255 20 28 2 118 4 201 5 l152 3 34 31 c154 141 400 266 598 305 30 6 64 12 75
15 11 2 45 7 76 10 31 4 65 8 75 10 11 2 48 7 84 10 36 4 81 9 100 11 35 4
141 11 319 20 52 3 97 8 99 10 7 6 -60 86 -125 149 -62 60 -183 137 -261 165
-74 27 -167 47 -307 65 -158 21 -177 23 -265 31 -41 4 -86 9 -100 11 -59 9
-635 25 -643 18z"/>
<path d="M5957 7714 c-1 -1 -72 -4 -157 -8 -158 -7 -244 -12 -315 -21 -22 -2
-65 -7 -95 -10 -65 -7 -104 -12 -185 -25 -33 -5 -78 -12 -100 -15 -43 -5 -73
-11 -120 -22 -16 -4 -32 -7 -35 -8 -103 -20 -267 -119 -364 -220 -124 -129
-227 -326 -250 -481 -3 -22 -8 -50 -11 -64 -7 -34 -11 -58 -20 -110 -4 -25 -9
-54 -11 -65 -4 -23 -21 -118 -28 -155 -2 -14 -11 -63 -20 -110 -8 -47 -18 -98
-21 -115 -3 -16 -7 -41 -9 -55 -3 -14 -9 -52 -15 -85 -6 -33 -13 -73 -16 -90
-3 -16 -8 -45 -11 -64 -3 -18 -8 -43 -10 -55 -2 -11 -7 -37 -10 -56 -3 -19 -7
-42 -9 -50 -2 -8 -7 -31 -10 -50 -3 -19 -26 -150 -51 -290 -26 -140 -48 -268
-50 -285 -3 -16 -9 -50 -14 -75 -9 -43 -104 -573 -114 -635 -19 -124 -25 -321
-11 -415 25 -178 90 -404 157 -550 219 -476 562 -935 953 -1274 102 -89 325
-257 399 -302 28 -16 70 -41 95 -57 68 -41 194 -105 243 -123 135 -50 188 -65
280 -82 57 -11 110 -20 118 -20 122 -4 293 -2 321 3 20 3 51 7 70 10 110 12
309 57 469 105 384 116 752 299 1080 538 104 76 117 86 168 130 15 12 48 39
74 60 81 64 311 303 379 394 85 115 153 230 204 347 37 85 87 242 99 311 6 34
24 138 31 175 16 87 47 264 52 290 4 29 31 180 39 220 4 18 20 110 28 160 2
11 7 36 10 55 24 132 36 200 41 230 3 19 8 46 10 60 12 58 15 77 21 120 3 25
8 48 10 51 1 3 10 48 18 100 9 52 18 105 21 119 3 14 10 52 15 85 6 33 12 74
16 90 26 143 53 296 58 325 3 19 12 73 21 119 9 46 18 97 20 115 3 17 11 66
18 108 39 217 -6 465 -116 650 -103 171 -244 278 -591 447 -639 311 -1265 502
-1891 577 -16 2 -43 6 -60 8 -28 5 -80 10 -210 21 -164 14 -597 27 -608 19z
m59 -1659 c170 -57 289 -180 345 -355 36 -114 24 -274 -28 -374 l-15 -28 -46
44 c-141 136 -335 209 -557 211 -60 1 -133 -2 -162 -6 -63 -9 -210 -54 -218
-67 -30 -49 -30 90 0 218 29 121 90 209 200 287 143 103 311 127 481 70z
m1682 -299 c193 -41 333 -194 379 -416 17 -78 -1 -216 -37 -298 l-20 -44 -37
37 c-202 202 -611 281 -886 170 -38 -15 -71 -25 -74 -22 -16 16 -5 160 19 240
28 95 131 226 203 259 14 6 25 15 25 19 0 8 131 57 182 68 49 11 163 5 246
-13z m-2308 -1592 c186 -134 365 -227 580 -302 81 -28 297 -85 370 -97 19 -3
42 -8 50 -10 41 -12 209 -35 305 -42 169 -12 434 -4 546 17 30 6 68 13 84 16
133 22 354 101 493 175 l92 49 -6 -28 c-37 -152 -143 -357 -258 -497 -213
-259 -562 -454 -899 -503 -68 -9 -325 -8 -402 2 -116 15 -292 62 -389 104
-106 45 -282 144 -306 171 -3 3 -27 23 -53 45 -259 208 -454 532 -514 851 -8
44 -16 141 -18 217 l-3 136 121 -121 c67 -67 160 -150 207 -183z"/>
<path d="M3350 6587 c-35 -40 -141 -118 -206 -150 -127 -64 -250 -91 -404 -91
-145 1 -238 19 -353 68 l-38 17 5 -63 c19 -206 57 -299 162 -402 58 -58 187
-128 259 -141 283 -52 538 97 629 368 9 26 18 77 21 113 3 58 0 90 -19 191 -3
12 -13 41 -23 64 -17 39 -20 41 -33 26z"/>
<path d="M3550 5249 c-337 -119 -595 -375 -689 -683 -28 -92 -49 -270 -32
-280 3 -2 40 28 81 66 41 38 111 94 155 123 96 64 298 166 377 191 60 18 58
14 74 114 2 14 8 45 14 70 5 25 16 86 25 135 9 50 20 110 25 135 5 25 12 63
16 85 4 22 8 46 10 53 1 6 2 12 1 11 -1 0 -27 -9 -57 -20z"/>
</g>
</svg>
